<svg version="1.1" id="Layer_1" xmlns="http://www.w3.org/2000/svg" xmlns:xlink="http://www.w3.org/1999/xlink" x="0px" y="0px"
	 width="100%" viewBox="0 0 1024 1024" enable-background="new 0 0 1024 1024" xml:space="preserve">
<path fill="#3A3A3A" opacity="1.000000" stroke="none"
	d="
M452.000000,1025.000000
	C301.333344,1025.000000 151.166672,1025.000000 1.000000,1025.000000
	C1.000000,683.666687 1.000000,342.333344 1.000000,1.000000
	C342.333344,1.000000 683.666687,1.000000 1025.000000,1.000000
	C1025.000000,342.333344 1025.000000,683.666687 1025.000000,1025.000000
	C834.166687,1025.000000 643.333313,1025.000000 452.000000,1025.000000
M848.800659,426.616058
	C848.800659,426.616058 848.579285,426.245636 848.495972,425.565460
	C845.037842,419.526550 843.093689,418.978912 837.747253,423.106171
	C835.343689,424.961670 833.527954,424.669708 831.703308,422.628143
	C827.489929,417.913666 823.302795,413.175354 819.141418,408.414886
	C816.745911,405.674591 816.686646,403.152466 819.823730,400.798187
	C822.795837,398.567719 823.766541,395.417572 821.373474,392.524872
	C815.754456,385.732819 809.920227,379.090881 803.740906,372.813660
	C802.501648,371.554840 798.310486,371.111115 797.252747,372.130524
	C792.924805,376.301697 790.326050,374.224792 787.580627,370.582703
	C786.481506,369.124664 784.975159,367.950195 784.002319,366.424591
	C780.044434,360.218048 774.661194,358.101318 767.180359,358.111542
	C638.420227,358.287750 509.659760,358.202545 380.899353,358.181610
	C339.089783,358.174835 297.280243,358.181610 255.470673,358.198517
	C248.479034,358.201355 247.294785,359.361938 247.214401,366.296234
	C247.150711,371.792023 247.050705,377.294250 247.240143,382.784180
	C247.411972,387.763092 244.397110,388.349426 240.492950,388.562805
	C236.066162,388.804749 235.611694,386.123840 235.632736,382.827087
	C235.668869,377.164246 235.831436,371.498505 235.703293,365.839355
	C235.564484,359.709839 233.892151,358.210510 227.864456,358.220001
	C220.701996,358.231232 213.527603,358.513184 206.379196,358.201019
	C179.362045,357.021057 147.407928,376.027344 135.938187,405.335510
	C133.102768,412.580750 129.743210,419.823700 131.753845,428.707794
	C131.731705,429.410706 131.709549,430.113586 131.246292,431.409485
	C130.948532,433.697906 130.414993,435.984100 130.393539,438.275085
	C130.296829,448.606079 130.342484,458.938446 130.341736,469.270294
	C130.337051,533.761353 130.537994,598.253357 130.250809,662.743164
	C130.086929,699.543518 156.864380,730.352539 188.615799,735.999268
	C202.199402,738.415039 216.436508,737.275085 230.379715,737.394348
	C232.064331,737.408813 234.171539,735.504395 235.385422,733.945984
	C238.705994,729.683105 244.646393,729.836060 247.782547,734.093201
	C249.051285,735.815369 251.609528,737.572510 253.616989,737.615112
	C276.932343,738.109741 300.254150,738.413635 323.575165,738.487122
	C338.878540,738.535339 354.183380,737.961792 369.487457,737.968628
	C384.123688,737.975159 398.760223,738.586060 413.395691,738.550354
	C438.865479,738.488159 464.334076,738.032349 489.803986,737.927368
	C518.280579,737.810059 546.758423,737.814453 575.234985,737.928101
	C594.890503,738.006592 614.545227,738.563721 634.199829,738.541077
	C659.831238,738.511597 685.461853,738.055237 711.093506,737.904480
	C732.589905,737.778076 754.087891,737.737854 775.583923,737.864807
	C780.505554,737.893860 784.271057,736.184631 787.448853,732.622437
	C790.282593,729.445923 790.594482,726.399597 787.024475,723.641724
	C783.336792,720.792969 783.750610,717.902222 786.552124,714.747986
	C790.202087,710.638489 793.922058,706.580505 797.366760,702.302917
	C799.803406,699.277100 802.051880,698.407349 805.267822,701.208496
	C808.182190,703.747070 811.247131,703.993530 813.990051,700.725891
	C818.804077,694.991089 823.556824,689.202454 828.475708,683.558716
	C831.671509,679.891968 832.514648,676.359619 828.812012,672.576721
	C826.534790,670.250122 826.660278,667.859802 828.687622,665.464600
	C832.453064,661.015991 836.222290,656.570435 840.013916,652.144165
	C842.666016,649.048157 845.441345,648.088562 849.008606,651.070679
	C852.139648,653.688110 855.016907,652.913513 857.615295,649.762024
	C862.165039,644.243958 866.850464,638.833008 871.609802,633.493835
	C875.739868,628.860657 876.001038,626.373108 871.637817,621.953125
	C869.341736,619.627197 869.329956,617.901855 871.380798,615.602234
	C875.696533,610.763000 879.892944,605.817505 884.160950,600.935364
	C886.204163,598.598145 888.093506,597.957947 890.879028,600.401428
	C894.872437,603.904541 897.440918,603.434937 901.030457,599.332458
	C906.287659,593.323730 911.453674,587.234802 916.746338,581.257751
	C919.846436,577.756775 920.040771,574.467468 916.428101,571.288391
	C913.717346,568.903076 913.884583,566.588379 916.165833,563.979675
	C919.453674,560.219788 922.591736,556.329163 925.800964,552.500366
	C928.688721,549.055298 931.780579,547.966675 935.626404,551.264160
	C938.816101,553.999207 941.817017,553.722107 944.729126,550.430786
	C948.594482,546.061951 949.572754,542.354919 946.772217,538.849365
	C942.617249,533.648254 938.161377,528.687683 933.837219,523.621582
	C930.681824,519.924805 927.353455,519.153076 923.682373,522.942932
	C921.518677,525.176514 919.259155,525.163208 917.233643,522.826111
	C912.655579,517.543701 908.015625,512.300232 903.768494,506.759094
	C902.992615,505.746765 903.311401,502.862152 904.228394,501.759552
	C908.872131,496.175415 908.900269,493.419800 903.991150,488.085205
	C899.376343,483.070404 894.884155,477.940643 890.416016,472.793762
	C887.462830,469.391968 884.371277,469.504303 881.395508,472.471893
	C878.735168,475.124786 876.608826,474.757202 874.278381,472.131256
	C870.409790,467.772125 866.431946,463.510040 862.500061,459.207123
	C859.802002,456.254456 859.440430,453.509216 862.848999,450.691681
	C865.362366,448.614105 867.001648,445.624786 864.553528,442.853790
	C861.070984,438.911896 856.917480,435.562714 852.801147,431.626892
	C852.801147,431.626892 852.557068,431.289795 852.510925,430.625763
	C851.345337,429.414215 850.179688,428.202637 848.800659,426.616058
z"/>
<path fill="#4F6F68" opacity="1.000000" stroke="none"
	d="
M853.050659,431.960297
	C856.917480,435.562714 861.070984,438.911896 864.553528,442.853790
	C867.001648,445.624786 865.362366,448.614105 862.848999,450.691681
	C859.440430,453.509216 859.802002,456.254456 862.500061,459.207123
	C866.431946,463.510040 870.409790,467.772125 874.278381,472.131256
	C876.608826,474.757202 878.735168,475.124786 881.395508,472.471893
	C884.371277,469.504303 887.462830,469.391968 890.416016,472.793762
	C894.884155,477.940643 899.376343,483.070404 903.991150,488.085205
	C908.900269,493.419800 908.872131,496.175415 904.228394,501.759552
	C903.311401,502.862152 902.992615,505.746765 903.768494,506.759094
	C908.015625,512.300232 912.655579,517.543701 917.233643,522.826111
	C919.259155,525.163208 921.518677,525.176514 923.682373,522.942932
	C927.353455,519.153076 930.681824,519.924805 933.837219,523.621582
	C938.161377,528.687683 942.617249,533.648254 946.772217,538.849365
	C949.572754,542.354919 948.594482,546.061951 944.729126,550.430786
	C941.817017,553.722107 938.816101,553.999207 935.626404,551.264160
	C931.780579,547.966675 928.688721,549.055298 925.800964,552.500366
	C922.591736,556.329163 919.453674,560.219788 916.165833,563.979675
	C913.884583,566.588379 913.717346,568.903076 916.428101,571.288391
	C920.040771,574.467468 919.846436,577.756775 916.746338,581.257751
	C911.453674,587.234802 906.287659,593.323730 901.030457,599.332458
	C897.440918,603.434937 894.872437,603.904541 890.879028,600.401428
	C888.093506,597.957947 886.204163,598.598145 884.160950,600.935364
	C879.892944,605.817505 875.696533,610.763000 871.380798,615.602234
	C869.329956,617.901855 869.341736,619.627197 871.637817,621.953125
	C876.001038,626.373108 875.739868,628.860657 871.609802,633.493835
	C866.850464,638.833008 862.165039,644.243958 857.615295,649.762024
	C855.016907,652.913513 852.139648,653.688110 849.008606,651.070679
	C845.441345,648.088562 842.666016,649.048157 840.013916,652.144165
	C836.222290,656.570435 832.453064,661.015991 828.687622,665.464600
	C826.660278,667.859802 826.534790,670.250122 828.812012,672.576721
	C832.514648,676.359619 831.671509,679.891968 828.475708,683.558716
	C823.556824,689.202454 818.804077,694.991089 813.990051,700.725891
	C811.247131,703.993530 808.182190,703.747070 805.267822,701.208496
	C802.051880,698.407349 799.803406,699.277100 797.366760,702.302917
	C793.922058,706.580505 790.202087,710.638489 786.552124,714.747986
	C783.750610,717.902222 783.336792,720.792969 787.024475,723.641724
	C790.594482,726.399597 790.282593,729.445923 787.448853,732.622437
	C784.271057,736.184631 780.505554,737.893860 775.583923,737.864807
	C754.087891,737.737854 732.589905,737.778076 711.093506,737.904480
	C685.461853,738.055237 659.831238,738.511597 634.199829,738.541077
	C614.545227,738.563721 594.890503,738.006592 575.234985,737.928101
	C546.758423,737.814453 518.280579,737.810059 489.803986,737.927368
	C464.334076,738.032349 438.865479,738.488159 413.395691,738.550354
	C398.760223,738.586060 384.123688,737.975159 369.487457,737.968628
	C354.183380,737.961792 338.878540,738.535339 323.575165,738.487122
	C300.254150,738.413635 276.932343,738.109741 253.616989,737.615112
	C251.609528,737.572510 249.051285,735.815369 247.782547,734.093201
	C244.646393,729.836060 238.705994,729.683105 235.385422,733.945984
	C234.171539,735.504395 232.064331,737.408813 230.379715,737.394348
	C216.436508,737.275085 202.199402,738.415039 188.615799,735.999268
	C156.864380,730.352539 130.086929,699.543518 130.250809,662.743164
	C130.537994,598.253357 130.337051,533.761353 130.341736,469.270294
	C130.342484,458.938446 130.296829,448.606079 130.393539,438.275085
	C130.414993,435.984100 130.948532,433.697906 131.580887,431.584595
	C131.992249,434.255829 132.135437,436.751984 132.136108,439.248169
	C132.155685,511.908508 132.034790,584.569336 132.323685,657.228577
	C132.361053,666.627808 133.447021,676.320374 136.011902,685.316895
	C138.027237,692.385864 143.074661,698.590454 146.856598,705.364990
	C146.938049,705.551025 147.109146,705.919434 147.173538,706.255981
	C152.509354,713.456482 157.865295,720.228943 166.012329,723.985413
	C166.000000,724.000000 166.023575,723.971191 166.203583,724.260620
	C167.905411,725.546570 169.359344,726.671082 170.959488,727.520020
	C189.740479,737.483765 209.933258,736.061401 230.093277,734.696960
	C231.091721,734.629395 232.024109,733.585571 233.107712,732.685791
	C233.364517,731.725281 233.500854,731.075195 233.843842,730.280518
	C234.363113,729.739929 234.675751,729.343994 235.449738,728.887024
	C239.953247,728.838074 243.995392,728.850159 248.161102,729.203613
	C249.961700,735.161804 254.401260,735.150818 259.115753,735.149475
	C430.777130,735.100403 602.438477,735.103882 774.099854,735.075256
	C776.251709,735.074890 778.512390,735.116394 780.535156,734.512146
	C786.729065,732.661560 788.070129,727.877808 783.595215,723.675842
	C781.031738,721.268738 780.811951,719.000061 782.833801,716.244751
	C785.575195,712.508789 788.232666,708.711365 790.959351,704.968872
	C790.992676,704.997559 790.932190,704.936890 791.235840,704.798950
	C793.024048,702.771790 794.508606,700.882507 796.164673,698.831787
	C796.560669,698.450623 796.776733,698.222839 797.304504,697.853882
	C800.091736,697.469543 802.558777,697.218384 805.186157,697.140747
	C805.564758,697.541870 805.790833,697.761353 806.169312,698.269287
	C808.060425,700.872192 810.226501,701.355835 812.108032,699.079102
	C816.184998,694.146240 820.003113,688.999390 823.961060,683.969971
	C823.995117,684.000000 823.931946,683.938110 824.243164,683.799561
	C827.267761,681.344421 830.542786,678.587952 827.340393,675.084106
	C823.927307,671.349609 823.906006,667.966064 826.076782,663.762634
	C826.469360,663.367432 826.684937,663.133362 827.191650,662.752441
	C828.629578,661.052185 829.769043,659.492065 831.002686,657.762817
	C831.096863,657.593628 831.268372,657.246521 831.571045,657.119324
	C833.235962,655.317627 834.598206,653.643066 836.126587,651.799744
	C836.509949,651.401550 836.718994,651.165039 837.230835,650.779785
	C840.708862,649.073730 843.875916,647.509094 847.021484,645.969849
	C847.000000,645.995117 847.044128,645.949585 847.200562,646.252136
	C851.641113,650.698303 853.191101,650.748352 857.042664,646.426880
	C861.461182,641.469299 865.712463,636.363098 870.069397,631.350159
	C872.455505,628.604858 872.486389,625.926758 869.773682,623.485352
	C866.211365,620.279419 867.029419,617.222351 869.632263,613.913940
	C872.177612,610.678467 874.509033,607.274780 876.965942,603.972412
	C876.997559,604.000000 876.937439,603.944458 877.244873,603.807434
	C878.545349,602.812744 879.592102,602.009399 880.522583,601.088501
	C886.217407,595.452454 886.209412,595.442078 893.174988,598.982849
	C896.678589,600.763794 898.803223,599.464539 900.046143,595.795776
	C900.142700,595.628052 900.318237,595.283081 900.592529,595.133057
	C901.544250,593.967529 902.221680,592.952087 903.005493,591.773804
	C903.111755,591.610840 903.308228,591.274902 903.610596,591.142090
	C907.324280,587.440125 910.713684,583.849609 914.153931,580.308411
	C917.025757,577.352356 917.124695,574.576782 913.780640,571.927734
	C910.834167,569.593689 910.878052,567.145447 913.154419,564.265076
	C914.663147,562.355835 915.740906,560.105957 917.219421,557.787354
	C918.250244,556.676025 919.073242,555.786011 920.199341,554.753723
	C922.539551,552.665588 924.652039,550.791687 926.596008,548.756836
	C929.506531,545.710327 932.488525,545.231812 935.697510,548.196167
	C938.491150,550.776733 941.076599,551.189209 943.691833,547.875305
	C946.643555,544.135193 946.498413,541.503296 942.716919,537.879761
	C941.988586,537.133606 941.445251,536.603943 940.830566,535.744690
	C939.155090,533.626099 937.551025,531.837097 935.972229,530.024048
	C935.997559,530.000000 935.943604,530.047302 935.854675,529.715576
	C931.462769,522.820557 929.862976,522.067505 925.472473,524.831177
	C924.507019,525.701965 923.783997,526.394470 922.664246,527.066772
	C916.924866,527.259888 914.689514,522.840698 911.653625,519.756165
	C907.615845,515.653625 903.835022,511.298309 899.966614,507.027039
	C899.989441,507.002441 899.935974,507.047882 899.941589,506.614380
	C899.958496,504.449188 899.969788,502.717529 900.154053,500.823608
	C900.554016,500.441132 900.772827,500.213013 901.315186,499.890991
	C904.984985,497.963257 907.125793,495.382080 904.233704,491.885132
	C899.181946,485.776947 893.789062,479.944977 888.409607,474.116852
	C886.529785,472.080322 884.403015,471.805878 882.734131,474.662354
	C882.703979,474.692902 882.665771,474.769653 882.335876,474.894379
	C879.163208,477.018768 876.431030,477.915314 873.682922,474.740417
	C869.231018,469.597015 864.696716,464.524078 860.147400,459.466217
	C857.258057,456.253876 856.659119,453.255951 860.281799,450.070374
	C863.722778,447.044525 863.445496,443.963745 860.264771,440.681366
	C857.647400,437.980377 855.439880,434.882355 853.050659,431.960297
z"/>
<path fill="#4F6F68" opacity="1.000000" stroke="none"
	d="
M131.779617,428.004669
	C129.743210,419.823700 133.102768,412.580750 135.938187,405.335510
	C147.407928,376.027344 179.362045,357.021057 206.379196,358.201019
	C213.527603,358.513184 220.701996,358.231232 227.864456,358.220001
	C233.892151,358.210510 235.564484,359.709839 235.703293,365.839355
	C235.831436,371.498505 235.668869,377.164246 235.632736,382.827087
	C235.611694,386.123840 236.066162,388.804749 240.492950,388.562805
	C244.397110,388.349426 247.411972,387.763092 247.240143,382.784180
	C247.050705,377.294250 247.150711,371.792023 247.214401,366.296234
	C247.294785,359.361938 248.479034,358.201355 255.470673,358.198517
	C297.280243,358.181610 339.089783,358.174835 380.899353,358.181610
	C509.659760,358.202545 638.420227,358.287750 767.180359,358.111542
	C774.661194,358.101318 780.044434,360.218048 784.002319,366.424591
	C784.975159,367.950195 786.481506,369.124664 787.580627,370.582703
	C790.326050,374.224792 792.924805,376.301697 797.252747,372.130524
	C798.310486,371.111115 802.501648,371.554840 803.740906,372.813660
	C809.920227,379.090881 815.754456,385.732819 821.373474,392.524872
	C823.766541,395.417572 822.795837,398.567719 819.823730,400.798187
	C816.686646,403.152466 816.745911,405.674591 819.141418,408.414886
	C823.302795,413.175354 827.489929,417.913666 831.703308,422.628143
	C833.527954,424.669708 835.343689,424.961670 837.747253,423.106171
	C843.093689,418.978912 845.037842,419.526550 848.225830,425.785400
	C845.107056,423.783722 842.268555,421.712952 838.760803,424.947266
	C835.165100,428.262756 832.237122,426.908295 829.487488,423.630249
	C825.650574,419.056000 821.811096,414.475494 817.772583,410.081604
	C814.703857,406.742828 813.730774,403.340698 816.425903,399.231598
	C816.604004,399.139252 816.950012,398.936249 817.289978,398.843689
	C820.652588,397.125916 820.445435,394.708313 818.696960,392.501465
	C817.072693,390.451569 814.913391,388.825562 812.838440,386.828186
	C812.478638,386.402527 812.258484,386.172760 811.939331,385.637085
	C810.529846,383.920288 809.207764,382.520569 807.897034,381.095581
	C807.908386,381.070312 807.860229,381.097870 807.803284,380.761658
	C805.951538,378.530548 804.156677,376.635590 802.332275,374.696930
	C802.302673,374.653198 802.217773,374.590454 802.023071,374.356873
	C800.447632,374.195984 798.845581,373.837189 797.722595,374.412842
	C791.356812,377.675537 790.905273,377.657898 786.177063,372.184204
	C784.761963,370.545959 783.077881,369.075714 781.961731,367.255768
	C778.782288,362.071899 774.174622,360.842468 768.359192,360.847656
	C638.266235,360.964050 508.173187,360.950684 378.080139,360.955780
	C337.936188,360.957336 297.792267,360.927399 257.648315,360.945831
	C250.632507,360.949036 249.937531,361.768585 249.795853,368.671478
	C249.683167,374.162354 249.389877,379.649292 249.224457,385.139404
	C249.046341,391.051544 244.842316,390.787476 240.706436,390.878601
	C236.512756,390.970978 233.992325,389.511536 234.029526,384.893372
	C234.077850,378.898071 233.953415,372.901581 233.962097,366.905701
	C233.968048,362.793243 232.148743,360.839264 227.876907,360.897797
	C217.884537,361.034698 207.873932,360.624603 197.899734,361.076538
	C188.492691,361.502716 179.571167,364.108215 171.530548,369.707214
	C171.353592,369.802826 171.019089,370.026245 170.693817,370.083649
	C169.153030,370.986542 167.937546,371.832062 166.538574,372.752502
	C166.355103,372.827454 165.996536,372.996368 165.664169,373.048218
	C163.774963,374.260773 162.218109,375.421448 160.417358,376.756714
	C159.437378,377.606934 158.701324,378.282562 157.639832,379.050842
	C155.193573,381.415375 153.072754,383.687256 150.731476,386.161133
	C149.900284,387.146698 149.289566,387.930267 148.430389,388.868713
	C147.776123,389.672638 147.370331,390.321625 146.816620,391.159729
	C146.473526,391.602600 146.278320,391.856293 145.791077,392.273956
	C138.107468,402.464844 133.335785,413.443237 133.235718,426.447327
	C133.179047,427.192474 133.149887,427.618530 132.785431,428.035248
	C132.226639,428.018829 132.003128,428.011749 131.779617,428.004669
z"/>
<path fill="#61A593" opacity="1.000000" stroke="none"
	d="
M131.766724,428.356232
	C132.003128,428.011749 132.226639,428.018829 132.938766,428.411316
	C133.590195,431.280518 133.893768,433.764221 133.895279,436.248108
	C133.940613,510.561462 133.897324,584.874939 134.026428,659.188110
	C134.051941,673.876465 136.565567,688.053894 145.084961,700.576233
	C145.976761,701.887085 146.227158,703.634277 146.775146,705.179016
	C143.074661,698.590454 138.027237,692.385864 136.011902,685.316895
	C133.447021,676.320374 132.361053,666.627808 132.323685,657.228577
	C132.034790,584.569336 132.155685,511.908508 132.136108,439.248169
	C132.135437,436.751984 131.992249,434.255829 131.801437,431.288086
	C131.709549,430.113586 131.731705,429.410706 131.766724,428.356232
z"/>
<path fill="#61A593" opacity="1.000000" stroke="none"
	d="
M816.247864,399.323944
	C813.730774,403.340698 814.703857,406.742828 817.772583,410.081604
	C821.811096,414.475494 825.650574,419.056000 829.487488,423.630249
	C832.237122,426.908295 835.165100,428.262756 838.760803,424.947266
	C842.268555,421.712952 845.107056,423.783722 848.267517,426.125488
	C848.579285,426.245636 848.800659,426.616058 848.961792,427.126068
	C850.267639,428.853973 851.412354,430.071899 852.557068,431.289795
	C852.557068,431.289795 852.801147,431.626892 852.925903,431.793579
	C855.439880,434.882355 857.647400,437.980377 860.264771,440.681366
	C863.445496,443.963745 863.722778,447.044525 860.281799,450.070374
	C856.659119,453.255951 857.258057,456.253876 860.147400,459.466217
	C864.696716,464.524078 869.231018,469.597015 873.682922,474.740417
	C876.431030,477.915314 879.163208,477.018768 882.285278,475.239441
	C879.735413,480.258118 876.735596,480.936127 873.278931,477.187317
	C868.102905,471.573914 863.194336,465.714935 858.116882,460.009430
	C854.827881,456.313660 854.255615,452.821899 858.360657,449.279205
	C861.194885,446.833160 861.036377,444.400452 858.416199,441.641510
	C854.304871,437.312347 850.364319,432.806122 846.574158,428.191895
	C844.043091,425.110535 841.698914,424.504486 838.740295,427.501312
	C836.293030,429.980103 833.346375,430.659943 830.869568,427.901215
	C824.884705,421.235168 818.955566,414.494995 813.433105,407.448364
	C810.809326,404.100494 812.086121,401.404694 816.247864,399.323944
z"/>
<path fill="#4F6F68" opacity="1.000000" stroke="none"
	d="
M852.533997,430.957794
	C851.412354,430.071899 850.267639,428.853973 849.068481,427.313599
	C850.179688,428.202637 851.345337,429.414215 852.533997,430.957794
z"/>
<path fill="#6DD1B4" opacity="1.000000" stroke="none"
	d="
M816.425903,399.231598
	C812.086121,401.404694 810.809326,404.100494 813.433105,407.448364
	C818.955566,414.494995 824.884705,421.235168 830.869568,427.901215
	C833.346375,430.659943 836.293030,429.980103 838.740295,427.501312
	C841.698914,424.504486 844.043091,425.110535 846.574158,428.191895
	C850.364319,432.806122 854.304871,437.312347 858.416199,441.641510
	C861.036377,444.400452 861.194885,446.833160 858.360657,449.279205
	C854.255615,452.821899 854.827881,456.313660 858.116882,460.009430
	C863.194336,465.714935 868.102905,471.573914 873.278931,477.187317
	C876.735596,480.936127 879.735413,480.258118 882.615173,475.114716
	C882.665771,474.769653 882.703979,474.692902 883.116150,474.746765
	C885.314819,475.910889 887.382385,476.739655 888.832031,478.187195
	C892.352356,481.702515 895.322937,485.797516 899.007996,489.110596
	C902.711548,492.440399 903.615601,495.752319 900.983521,499.977051
	C900.772827,500.213013 900.554016,500.441132 899.838013,500.912659
	C896.140259,503.464874 897.022827,505.357666 899.935974,507.047882
	C899.935974,507.047882 899.989441,507.002441 900.025330,507.373474
	C905.646362,514.462830 911.099976,521.297668 916.893311,527.831299
	C918.732117,529.905029 921.338013,530.113708 923.060913,527.086975
	C923.783997,526.394470 924.507019,525.701965 925.806763,524.856934
	C929.570190,526.485413 932.756897,528.266357 935.943604,530.047302
	C935.943604,530.047302 935.997559,530.000000 936.029114,530.366882
	C937.674438,532.513977 939.288208,534.294128 940.901978,536.074280
	C941.445251,536.603943 941.988586,537.133606 942.768738,538.252441
	C942.603333,541.445190 942.200989,544.048828 941.798706,546.652405
	C939.577087,546.228394 937.371033,545.654907 935.129578,545.421509
	C932.773071,545.176086 929.578430,544.259216 928.169617,545.395630
	C924.951416,547.991577 922.599792,551.661926 919.896240,554.895996
	C919.073242,555.786011 918.250244,556.676025 916.907166,557.907715
	C914.570129,560.131409 912.663879,561.936462 910.957703,563.914062
	C908.539917,566.716431 908.527405,569.758728 911.177673,572.307861
	C914.544983,575.546631 913.604065,578.005310 910.796326,581.074463
	C907.965698,584.168518 905.777771,587.850525 903.308228,591.274902
	C903.308228,591.274902 903.111755,591.610840 902.706055,591.890015
	C901.639648,593.207153 900.979004,594.245117 900.318237,595.283081
	C900.318237,595.283081 900.142700,595.628052 899.723694,595.911438
	C896.578552,598.030396 894.345642,597.617004 891.652405,595.575989
	C890.006775,594.328857 886.293945,593.397827 885.172424,594.328613
	C881.971741,596.984802 879.621948,600.666260 876.937378,603.944458
	C876.937439,603.944458 876.997559,604.000000 876.646851,604.079590
	C872.849243,608.131897 868.943176,611.817871 866.191711,616.224670
	C865.157654,617.880920 865.995850,621.847839 867.406982,623.634766
	C869.823059,626.694153 869.610657,628.790344 867.244690,631.426575
	C864.031067,635.007202 860.761292,638.567322 857.885132,642.412598
	C854.988342,646.285583 851.914307,648.599426 847.044128,645.949585
	C847.044128,645.949585 847.000000,645.995117 846.899658,645.669128
	C842.617310,642.373352 839.534119,644.114197 836.919861,650.921265
	C836.718994,651.165039 836.509949,651.401550 835.806213,651.900391
	C833.969238,653.862061 832.618835,655.554321 831.268433,657.246521
	C831.268372,657.246521 831.096863,657.593628 830.687744,657.876343
	C829.150208,659.736816 828.021729,661.314636 826.893188,662.892517
	C826.684937,663.133362 826.469360,663.367432 825.764954,663.883728
	C822.143982,666.168274 819.877625,669.250610 822.687744,672.246155
	C826.408203,676.212341 826.392090,679.734619 823.931946,683.938110
	C823.931946,683.938110 823.995117,684.000000 823.639404,684.070923
	C820.000793,687.520569 816.921204,691.137024 813.356140,694.185791
	C811.321106,695.926025 808.494751,696.741089 806.024719,697.972717
	C805.790833,697.761353 805.564758,697.541870 805.081909,696.821594
	C800.967529,692.127869 799.185852,692.505005 796.984253,697.987000
	C796.776733,698.222839 796.560669,698.450623 795.843323,698.938354
	C793.877808,701.116516 792.404968,703.026733 790.932190,704.936890
	C790.932190,704.936890 790.992676,704.997559 790.638794,705.072510
	C786.954346,708.808899 783.377075,712.281616 780.379822,716.198242
	C778.378601,718.813232 778.877258,721.711426 781.242493,724.381897
	C782.393555,725.681702 783.764709,728.399109 783.195374,729.266418
	C782.089539,730.951050 779.814758,732.181519 777.778076,732.848633
	C775.964661,733.442444 773.818848,733.044556 771.819702,733.044617
	C605.511169,733.048767 439.202637,733.076538 272.894226,732.969238
	C264.479248,732.963806 255.453705,735.418762 248.037537,728.862244
	C243.995392,728.850159 239.953247,728.838074 235.246262,728.853699
	C234.266678,729.395996 233.951935,729.910583 233.637207,730.425171
	C233.500854,731.075195 233.364517,731.725281 232.640442,732.677795
	C222.449371,733.014282 212.844589,732.956238 203.243088,733.107178
	C192.781754,733.271606 182.886627,731.000488 173.367584,726.779175
	C170.975037,725.718140 168.474487,724.900635 166.023575,723.971191
	C166.023575,723.971191 166.000000,724.000000 165.894745,723.675171
	C159.562714,717.539978 153.335938,711.729736 147.109146,705.919434
	C147.109146,705.919434 146.938049,705.551025 146.856598,705.364990
	C146.227158,703.634277 145.976761,701.887085 145.084961,700.576233
	C136.565567,688.053894 134.051941,673.876465 134.026428,659.188110
	C133.897324,584.874939 133.940613,510.561462 133.895279,436.248108
	C133.893768,433.764221 133.590195,431.280518 133.274063,428.420654
	C133.149887,427.618530 133.179047,427.192474 133.469757,426.189636
	C135.888474,418.645935 137.833862,411.603516 140.279587,404.739380
	C141.828506,400.392212 144.122986,396.310638 146.083084,392.109955
	C146.278320,391.856293 146.473526,391.602600 147.072479,391.011841
	C147.877136,390.021179 148.278000,389.367493 148.678848,388.713806
	C149.289566,387.930267 149.900284,387.146698 151.055115,386.060638
	C153.721252,383.491486 155.843246,381.224823 157.965256,378.958191
	C158.701324,378.282562 159.437378,377.606934 160.773773,376.742920
	C162.914932,375.368500 164.455734,374.182434 165.996536,372.996368
	C165.996536,372.996368 166.355103,372.827454 166.882156,372.734314
	C168.612503,371.769531 169.815796,370.897888 171.019089,370.026245
	C171.019089,370.026245 171.353592,369.802826 171.918625,369.734070
	C173.901688,369.215424 175.354050,368.851593 176.732178,368.301666
	C185.481247,364.810516 194.408691,362.522156 203.977554,362.963165
	C211.944016,363.330292 219.934875,363.216187 227.914917,363.216187
	C230.977066,363.216187 232.058380,364.860229 232.081406,367.595886
	C232.120667,372.262054 232.111816,376.928619 232.153534,381.594757
	C232.251633,392.566711 232.969650,393.243988 243.857391,392.742615
	C244.523087,392.711975 245.191223,392.693268 245.852829,392.620239
	C249.537598,392.213531 251.651413,390.242676 251.741364,386.451721
	C251.840179,382.287079 251.843231,378.119934 251.864746,373.953766
	C251.917038,363.827576 251.911591,363.817627 262.128937,363.817780
	C428.126312,363.820618 594.123901,363.939911 760.120483,363.572632
	C771.073303,363.548431 779.475159,364.643280 785.825317,374.705627
	C789.792908,380.992584 791.932617,380.471069 798.153198,376.439758
	C799.388672,375.639069 800.856873,375.197601 802.217773,374.590454
	C802.217773,374.590454 802.302673,374.653198 802.379272,375.037170
	C804.257385,377.313385 806.058777,379.205627 807.860229,381.097870
	C807.860229,381.097870 807.908386,381.070312 807.960815,381.429932
	C809.351135,383.177734 810.688904,384.565918 812.026733,385.954132
	C812.258484,386.172760 812.478638,386.402527 812.888123,387.178040
	C813.914490,391.612579 819.661682,393.819489 816.950012,398.936249
	C816.950012,398.936249 816.604004,399.139252 816.425903,399.231598
M313.857178,565.941223
	C313.843506,572.233704 313.792267,578.526306 313.823273,584.818542
	C313.913818,603.193726 314.037231,621.568726 314.016846,640.710022
	C315.757172,648.125610 320.449646,653.657043 325.700043,653.836548
	C332.145752,654.056885 338.606110,653.850769 345.947144,653.922180
	C355.270844,654.106445 353.883331,654.599670 353.911377,646.000977
	C353.973267,627.010620 353.932465,608.019897 353.906128,589.029297
	C353.844177,544.386597 353.766144,499.743835 353.888184,454.363922
	C352.267090,453.142365 350.712524,450.976898 349.013794,450.857178
	C340.047180,450.225342 331.045898,450.027374 322.053253,449.842987
	C316.170441,449.722351 314.335754,451.507751 314.280823,457.591034
	C314.103424,477.250183 314.028442,496.910461 313.971069,516.570435
	C313.923920,532.716675 313.958160,548.863220 313.857178,565.941223
M775.569824,495.045319
	C748.841736,503.531067 732.054932,535.543945 749.530212,563.089661
	C759.175964,578.293884 777.240601,587.019897 795.282898,584.276123
	C811.862793,581.754700 827.925049,567.833862 831.804810,552.623169
	C836.800781,533.036316 830.441895,513.588318 815.482544,502.595062
	C803.655212,493.903442 790.299622,493.042603 775.569824,495.045319
M488.630432,578.720520
	C486.861633,576.303223 484.902802,574.000061 483.368042,571.442322
	C480.987732,567.475464 477.805206,565.849487 473.082611,565.881836
	C440.449615,566.105530 407.815125,566.158142 375.181183,566.134277
	C370.988434,566.131226 369.503754,567.994568 369.552002,571.858032
	C369.618469,577.185852 369.571899,582.515015 369.601257,587.843506
	C369.638031,594.518982 370.341217,595.282043 377.098907,595.268799
	C389.587006,595.244324 402.074921,595.068054 414.562775,595.085449
	C416.685303,595.088440 418.806915,595.742798 420.928955,596.096252
	C421.061249,596.646362 421.193542,597.196472 421.325836,597.746582
	C419.465210,599.236938 417.712372,600.893921 415.720734,602.181702
	C411.948700,604.620728 407.990143,606.769958 404.196716,609.177551
	C392.256989,616.755615 380.329010,624.353027 368.457489,632.037048
	C363.781464,635.063721 363.514496,636.846252 366.507599,641.386658
	C367.972778,643.609253 369.414886,645.846985 370.870575,648.075867
	C378.442383,659.669434 378.507111,659.770752 390.287445,652.294800
	C422.746368,631.695862 455.151550,611.012146 487.564270,590.340454
	C493.309326,586.676392 493.413452,585.618896 488.630432,578.720520
M442.151184,486.550903
	C422.929901,473.990417 403.660889,461.501923 384.526642,448.810211
	C380.585297,446.195923 377.965973,446.579803 375.472931,450.542236
	C372.904083,454.625183 370.077087,458.546906 367.327728,462.514709
	C363.347015,468.259521 363.472015,469.369202 369.301086,473.198486
	C385.011047,483.518707 400.794556,493.727356 416.468567,504.101562
	C417.970825,505.095886 418.911072,506.939270 420.112244,508.388489
	C418.267517,509.163544 416.465942,510.081085 414.561188,510.657990
	C413.489197,510.982697 412.246979,510.763275 411.081512,510.758575
	C399.093384,510.710358 387.104340,510.724121 375.117584,510.566528
	C370.879822,510.510773 369.034882,512.224121 369.191345,516.525879
	C369.378845,521.680664 369.300812,526.848999 369.210388,532.009216
	C369.091003,538.822205 369.556000,539.251587 376.553314,539.252869
	C407.690796,539.258606 438.830048,539.150818 469.964325,539.485840
	C476.478241,539.555969 481.238220,538.153625 484.304718,532.093018
	C485.482971,529.764282 487.493713,527.846985 489.179657,525.786865
	C493.143768,520.942810 493.131439,519.840271 487.919678,516.402344
	C472.916565,506.505676 457.824646,496.743683 442.151184,486.550903
M233.847656,609.212280
	C233.869370,616.677551 233.822418,624.143921 233.934875,631.607849
	C234.022064,637.394104 234.842377,637.981140 241.881119,638.015198
	C248.399673,638.046631 249.897675,636.945435 249.986725,631.452881
	C250.099655,624.487183 249.970551,617.517578 249.955917,610.549683
	C249.949402,607.447144 249.927582,604.496338 245.739029,603.923279
	C238.460358,602.927368 235.402313,603.996033 233.847656,609.212280
M250.046005,550.717651
	C250.127167,542.345337 249.885056,542.106079 241.343140,542.116943
	C241.009964,542.117371 240.673325,542.146545 240.344116,542.109985
	C235.679718,541.592407 233.585175,543.504333 233.788528,548.352356
	C234.032684,554.172852 233.819916,560.011353 233.865082,565.841614
	C233.935822,574.970276 234.297791,575.314697 243.462631,575.561646
	C248.581650,575.699463 249.936432,574.461487 250.023407,569.150635
	C250.118866,563.321899 250.042648,557.490417 250.046005,550.717651
M249.871323,483.710052
	C247.480225,478.236816 242.745773,481.079742 238.966644,480.722290
	C235.892563,480.431549 234.307236,482.311523 234.243210,485.232483
	C234.065186,493.356354 233.805435,501.492279 234.133987,509.600891
	C234.194168,511.085968 236.653397,512.929504 238.406555,513.751526
	C239.911102,514.456970 241.995361,513.853149 243.812943,513.978333
	C248.227066,514.282227 250.232178,512.364563 250.133713,507.865601
	C249.963150,500.072205 250.013184,492.273987 249.871323,483.710052
M249.991776,680.521362
	C249.978806,679.027771 249.961227,677.534119 249.953644,676.040527
	C249.900650,665.602478 249.444641,665.269775 238.935364,665.600525
	C235.343582,665.713623 233.810181,667.155701 233.846283,670.705688
	C233.908722,676.845032 233.748886,682.986755 233.810196,689.126099
	C233.909653,699.082642 233.953247,699.082092 243.795853,699.066284
	C244.127747,699.065735 244.459671,699.071228 244.791519,699.078003
	C248.275970,699.149597 250.034073,697.484253 250.011856,693.958069
	C249.985703,689.809326 249.999390,685.660278 249.991776,680.521362
M244.777847,419.084106
	C243.779404,419.067566 242.780991,419.039703 241.782501,419.036224
	C234.371094,419.010620 233.934021,419.422607 233.881012,426.956116
	C233.837677,433.114166 233.841110,439.272888 233.874954,445.431061
	C233.909988,451.808563 234.306671,452.188324 240.652023,452.404022
	C241.650070,452.437958 242.649063,452.455536 243.645920,452.511261
	C247.733154,452.739655 249.980225,450.969360 249.961288,446.724304
	C249.927856,439.235077 250.160873,431.727844 249.662369,424.269623
	C249.542465,422.475677 246.992767,420.844116 244.777847,419.084106
z"/>
</svg>